<svg width="86" height="124" viewBox="0 0 86 124" fill="none" xmlns="http://www.w3.org/2000/svg">
<path d="M75.2722 42.4973C79.2863 39.5861 82.276 35.4792 83.813 30.7648C85.3499 26.0504 85.3553 20.9705 83.8283 16.2529C82.3012 11.5353 79.3202 7.42205 75.3122 4.50247C71.3043 1.58289 66.4751 0.00680054 61.5165 0H23.4926C18.534 0.00680054 13.7048 1.58289 9.69687 4.50247C5.68892 7.42205 2.70789 11.5353 1.18087 16.2529C-0.346148 20.9705 -0.340792 26.0504 1.19617 30.7648C2.73314 35.4792 5.72284 39.5861 9.73694 42.4973C6.72329 44.6677 4.26878 47.5235 2.57583 50.8291C0.88288 54.1346 0 57.7953 0 61.5092C0 65.2231 0.88288 68.8838 2.57583 72.1893C4.26878 75.4949 6.72329 78.3507 9.73694 80.5211C6.47715 82.8768 3.87694 86.0301 2.18543 89.679C0.493924 93.3279 -0.232187 97.35 0.0766715 101.36C0.38553 105.37 1.71901 109.233 3.94933 112.58C6.17966 115.927 9.2321 118.645 12.8142 120.474C16.3963 122.302 20.3879 123.18 24.4067 123.024C28.4256 122.867 32.3368 121.681 35.7658 119.58C39.1948 117.478 42.0266 114.531 43.9898 111.021C45.953 107.51 46.982 103.555 46.978 99.5331V79.906C49.4157 81.9629 52.2468 83.5016 55.2987 84.4284C58.3505 85.3552 61.5592 85.6507 64.729 85.2968C67.8988 84.9429 70.9634 83.947 73.7357 82.3699C76.508 80.7928 78.93 78.6675 80.854 76.1237C82.7781 73.5799 84.1638 70.6708 84.9267 67.5739C85.6896 64.477 85.8137 61.2571 85.2914 58.1106C84.7691 54.9642 83.6113 51.9571 81.8888 49.2727C80.1662 46.5884 77.9149 44.283 75.2722 42.4973ZM76.055 23.4853C76.0403 27.3367 74.5038 31.026 71.7805 33.7494C69.0572 36.4727 65.3678 38.0091 61.5165 38.0239H46.978V8.94679H61.5165C65.3678 8.96152 69.0572 10.498 71.7805 13.2213C74.5038 15.9446 76.0403 19.634 76.055 23.4853ZM8.9541 23.4853C8.96883 19.634 10.5053 15.9446 13.2286 13.2213C15.9519 10.498 19.6413 8.96152 23.4926 8.94679H38.0312V38.0239H23.4926C19.6413 38.0091 15.9519 36.4727 13.2286 33.7494C10.5053 31.026 8.96883 27.3367 8.9541 23.4853ZM8.9541 61.5092C8.96883 57.6579 10.5053 53.9685 13.2286 51.2452C15.9519 48.5219 19.6413 46.9854 23.4926 46.9707H38.0312V76.0477H23.4926C19.6413 76.033 15.9519 74.4966 13.2286 71.7732C10.5053 69.0499 8.96883 65.3605 8.9541 61.5092ZM23.4926 114.072C19.6368 114.072 15.9388 112.54 13.2123 109.813C10.4858 107.087 8.9541 103.389 8.9541 99.5331C8.9541 95.6772 10.4858 91.9793 13.2123 89.2528C15.9388 86.5263 19.6368 84.9945 23.4926 84.9945H38.0312V99.5331C38.0164 103.384 36.48 107.074 33.7567 109.797C31.0333 112.52 27.344 114.057 23.4926 114.072ZM61.5165 76.0477C57.6606 76.0477 53.9627 74.516 51.2362 71.7895C48.5097 69.063 46.978 65.3651 46.978 61.5092C46.978 57.6533 48.5097 53.9554 51.2362 51.2289C53.9627 48.5024 57.6606 46.9707 61.5165 46.9707C65.3724 46.9707 69.0703 48.5024 71.7968 51.2289C74.5233 53.9554 76.055 57.6533 76.055 61.5092C76.055 65.3651 74.5233 69.063 71.7968 71.7895C69.0703 74.516 65.3724 76.0477 61.5165 76.0477Z" fill="#797474"/>
</svg>
