<svg width="40" height="40" viewBox="0 0 40 40" fill="none" xmlns="http://www.w3.org/2000/svg">
<path d="M20.1619 3.05176e-05C17.5567 3.05176e-05 14.9771 0.517915 12.5702 1.52411C10.1633 2.53031 7.97639 4.00512 6.13425 5.86434C2.41389 9.61919 0.323807 14.7119 0.323807 20.022C0.323807 28.8717 6.01734 36.38 13.8931 39.0429C14.885 39.2031 15.2024 38.5824 15.2024 38.0418V34.6581C9.70723 35.8594 8.53678 31.9751 8.53678 31.9751C7.62423 29.6526 6.33475 29.0319 6.33475 29.0319C4.52948 27.7906 6.47362 27.8306 6.47362 27.8306C8.45743 27.9707 9.50884 29.8929 9.50884 29.8929C11.2348 32.9362 14.151 32.0352 15.2817 31.5547C15.4603 30.2533 15.9761 29.3723 16.5315 28.8717C12.1275 28.3712 7.5052 26.6493 7.5052 19.0209C7.5052 16.7985 8.25904 15.0165 9.54852 13.595C9.35014 13.0944 8.65581 11.0121 9.7469 8.30916C9.7469 8.30916 11.4133 7.76856 15.2024 10.3514C16.7696 9.91092 18.4757 9.69067 20.1619 9.69067C21.8481 9.69067 23.5542 9.91092 25.1214 10.3514C28.9105 7.76856 30.5769 8.30916 30.5769 8.30916C31.668 11.0121 30.9737 13.0944 30.7753 13.595C32.0648 15.0165 32.8186 16.7985 32.8186 19.0209C32.8186 26.6693 28.1765 28.3512 23.7526 28.8517C24.4668 29.4724 25.1214 30.6937 25.1214 32.5558V38.0418C25.1214 38.5824 25.4388 39.2231 26.4506 39.0429C34.3263 36.36 40 28.8717 40 20.022C40 17.3927 39.4869 14.7891 38.4899 12.3599C37.493 9.93076 36.0317 7.72355 34.1896 5.86434C32.3474 4.00512 30.1605 2.53031 27.7536 1.52411C25.3467 0.517915 22.7671 3.05176e-05 20.1619 3.05176e-05Z" fill="white"/>
</svg>
