<svg width="120" height="117" viewBox="0 0 120 117" fill="none" xmlns="http://www.w3.org/2000/svg">
<path d="M60 0C52.1207 0 44.3185 1.55071 37.039 4.5636C29.7595 7.57649 23.1451 11.9926 17.5736 17.5596C6.32141 28.8029 0 44.052 0 59.9524C0 86.4513 17.22 108.933 41.04 116.907C44.04 117.387 45 115.528 45 113.91V103.778C28.38 107.375 24.84 95.7439 24.84 95.7439C22.08 88.7895 18.18 86.9309 18.18 86.9309C12.72 83.2139 18.6 83.3338 18.6 83.3338C24.6 83.7535 27.78 89.5089 27.78 89.5089C33 98.6217 41.82 95.9238 45.24 94.4849C45.78 90.588 47.34 87.9501 49.02 86.4513C35.7 84.9525 21.72 79.7966 21.72 56.9548C21.72 50.3 24 44.9643 27.9 40.7077C27.3 39.2089 25.2 32.9738 28.5 24.8802C28.5 24.8802 33.54 23.2615 45 30.9954C49.74 29.6764 54.9 29.017 60 29.017C65.1 29.017 70.26 29.6764 75 30.9954C86.46 23.2615 91.5 24.8802 91.5 24.8802C94.8 32.9738 92.7 39.2089 92.1 40.7077C96 44.9643 98.28 50.3 98.28 56.9548C98.28 79.8566 84.24 84.8926 70.86 86.3914C73.02 88.2499 75 91.907 75 97.4826V113.91C75 115.528 75.96 117.447 79.02 116.907C102.84 108.874 120 86.4513 120 59.9524C120 52.0793 118.448 44.2834 115.433 37.0096C112.417 29.7358 107.998 23.1267 102.426 17.5596C96.8549 11.9926 90.2405 7.57649 82.961 4.5636C75.6815 1.55071 67.8793 0 60 0Z" fill="#797474"/>
</svg>
