<svg width="96" height="109" viewBox="0 0 96 109" fill="none" xmlns="http://www.w3.org/2000/svg">
<path d="M0 0L8.71386 97.5308L47.8176 108.368L87.0232 97.5173L95.7507 0H0.00678681H0ZM79.5513 91.3132L48.0348 100.03V100.077L47.9534 100.05L47.8719 100.077V100.03L16.3555 91.3132L8.90388 7.97856H87.0029L79.5513 91.3132ZM62.5851 56.1073L61.2006 71.6174L47.8176 75.2206L34.4686 71.631L33.6135 62.0811H21.5811L23.2573 80.8693L47.8651 87.6626L72.3983 80.8693L75.6898 44.1462H32.0051L30.9125 31.8939H76.7756L77.8479 19.9329H17.8078L21.0449 56.1073H62.5851Z" fill="#797474"/>
</svg>
