<svg width="101" height="101" viewBox="0 0 101 101" fill="none" xmlns="http://www.w3.org/2000/svg">
<path d="M0 0H100.658V100.458H0V0ZM26.4507 83.9378C28.6876 88.6817 33.1053 92.5883 40.6547 92.5883C49.0429 92.5883 54.8027 88.1236 54.8027 78.3569V46.0988H45.2961V78.1336C45.2961 82.9333 43.3389 84.1611 40.2632 84.1611C37.0198 84.1611 35.6777 81.9287 34.1678 79.3056L26.4507 83.9378ZM59.8916 82.9333C62.6876 88.4026 68.3357 92.5883 77.1712 92.5883C86.1186 92.5883 92.8291 87.9561 92.8291 79.4172C92.8291 71.5481 88.2995 68.0321 80.2469 64.5719L77.8982 63.5673C73.8159 61.8372 72.0824 60.6652 72.0824 57.8747C72.0824 55.5865 73.8159 53.8006 76.612 53.8006C79.2962 53.8006 81.0857 54.9726 82.7074 57.8747L90.0331 53.0192C86.9574 47.6615 82.5956 45.5965 76.612 45.5965C68.1679 45.5965 62.7435 50.9543 62.7435 58.0421C62.7435 65.7439 67.2732 69.3715 74.0955 72.2736L76.4442 73.2782C80.8061 75.1757 83.3784 76.3477 83.3784 79.5847C83.3784 82.2635 80.862 84.2169 76.9475 84.2169C72.3061 84.2169 69.6218 81.8171 67.6087 78.4685L59.8916 82.9333Z" fill="#797474"/>
</svg>
