<svg width="103" height="114" viewBox="0 0 103 114" fill="none" xmlns="http://www.w3.org/2000/svg">
<path d="M99.8847 55.7918C99.879 52.5426 98.7979 49.3868 96.8101 46.8166C94.8223 44.2465 92.0396 42.4067 88.8963 41.5842L103 0H33.1092L47.2507 41.7164C44.1978 42.6063 41.5156 44.4616 39.606 47.0043C37.6964 49.5471 36.6623 52.6402 36.6588 55.8201C36.6644 58.1646 37.2297 60.4739 38.3076 62.5559C39.3856 64.6379 40.945 66.4325 42.8563 67.7903C41.3505 69.9131 39.6365 71.8801 37.7397 73.6621C34.2505 76.9853 30.1674 79.6225 25.7034 81.4362C21.7668 78.7788 20.0628 74.0917 21.6016 69.8908C24.9503 68.8506 27.8161 66.6461 29.6804 63.6761C31.5446 60.7061 32.2841 57.1669 31.765 53.699C31.246 50.2311 29.5027 47.0635 26.8506 44.7695C24.1985 42.4755 20.8128 41.2066 17.3063 41.1925C13.4108 41.1975 9.6763 42.7471 6.92178 45.5017C4.16725 48.2562 2.61756 51.9907 2.61257 55.8862C2.61257 59.8888 4.25045 63.5611 6.87483 66.1855C6.64827 66.6433 6.41698 67.1059 6.18569 67.5968C3.99084 72.1234 1.49862 77.24 0.545155 82.9797C-1.35705 94.459 1.75822 103.673 9.27265 108.888C13.3396 111.757 18.1966 113.292 23.1734 113.283C31.797 113.283 40.5529 108.954 49.016 104.754C55.0531 101.77 61.2836 98.6552 67.415 97.1447C69.6807 96.5878 72.0408 96.2621 74.533 95.8986C79.5835 95.1764 84.7992 94.4259 89.4863 91.6977C92.163 90.1639 94.4718 88.0631 96.251 85.5428C98.0301 83.0225 99.2365 80.1436 99.7856 77.1078C100.607 72.416 99.7856 67.6959 97.6899 63.5611C99.0965 61.2954 99.8847 58.6427 99.8847 55.7871V55.7918ZM93.489 55.7918C93.489 60.3467 89.7837 64.052 85.2288 64.052C83.5135 64.0472 81.8421 63.5095 80.4458 62.5132C79.0495 61.5169 77.9974 60.1113 77.435 58.4908C76.8725 56.8704 76.8276 55.1152 77.3064 53.4681C77.7851 51.8209 78.764 50.3633 80.1074 49.2969L80.1405 49.2639C80.4048 49.0656 80.6974 48.8674 80.9901 48.6738C80.9901 48.6738 81.0279 48.6738 81.0279 48.6408C81.16 48.5747 81.2875 48.4756 81.4196 48.4048C81.4527 48.4048 81.4857 48.3765 81.5188 48.3765C81.6509 48.3104 81.8161 48.2443 81.9766 48.1782C82.1418 48.1122 82.307 48.0508 82.4392 47.9847C82.4722 47.9847 82.5005 47.9517 82.5336 47.9517C82.6657 47.9186 82.7979 47.8525 82.9301 47.8195C82.9631 47.8195 83.0245 47.7865 83.0622 47.7865C83.2227 47.7534 83.3549 47.7204 83.5201 47.6921H83.5531L84.044 47.5882C84.0771 47.5882 84.1384 47.5882 84.1762 47.5552C84.3083 47.5552 84.4358 47.5221 84.568 47.5221H84.7332C84.8984 47.5221 85.0636 47.4891 85.2571 47.4891H85.6819C85.8141 47.4891 85.9179 47.4891 86.0453 47.5221H86.1114C86.371 47.5552 86.6354 47.5882 86.8997 47.6543C88.7618 48.0533 90.4311 49.0778 91.63 50.5575C92.8288 52.0372 93.4849 53.8827 93.489 55.7871V55.7918ZM42.2615 6.56096H93.8524L82.0097 41.4898C81.5188 41.5842 81.0279 41.7494 80.537 41.9146L68.0759 16.4968L55.577 41.7494C55.0861 41.589 54.5574 41.4898 54.0335 41.3907L42.2615 6.55624V6.56096ZM65.7111 52.9361C65.1077 49.9085 63.5572 47.1513 61.2836 45.063L68.0711 31.3557L74.9248 45.3603C72.8951 47.39 71.4177 49.986 70.8277 52.9361H65.7064H65.7111ZM49.2804 47.7534C49.4408 47.7204 49.573 47.6873 49.7382 47.659H49.8326C49.9695 47.6213 50.0969 47.6213 50.2291 47.5882H50.3613C50.4934 47.5882 50.5925 47.5552 50.72 47.5552H51.9991C52.1313 47.5552 52.2304 47.5882 52.3296 47.5882C52.3956 47.5882 52.424 47.5882 52.4948 47.6213C52.6222 47.6543 52.7213 47.6543 52.8535 47.6873C52.8865 47.6873 52.9196 47.6873 52.9856 47.7204L53.4435 47.8148H53.4765C53.6087 47.8525 53.7409 47.8856 53.8683 47.9517C53.9014 47.9517 53.9344 47.9847 54.0005 47.9847C54.0996 48.0178 54.2318 48.0508 54.3309 48.1122C54.3639 48.1122 54.397 48.1452 54.4253 48.1452C54.5574 48.2113 54.6896 48.2443 54.8218 48.3104H54.8548C55.0064 48.3676 55.1493 48.4455 55.2796 48.5417H55.3127C55.4448 48.6078 55.577 48.7022 55.7092 48.7682C55.7422 48.7682 55.7422 48.8013 55.7705 48.8013C55.9027 48.8674 56.0065 48.9665 56.134 49.0326L56.167 49.0656C56.5588 49.3583 56.9222 49.6887 57.281 50.0144L57.314 50.0474C58.7756 51.587 59.5872 53.6311 59.5797 55.754C59.5072 57.8977 58.6047 59.9293 57.0626 61.4201C55.5206 62.9109 53.4596 63.7443 51.3147 63.7443C49.1699 63.7443 47.1089 62.9109 45.5668 61.4201C44.0248 59.9293 43.1223 57.8977 43.0498 55.754C43.0446 53.9159 43.6555 52.1291 44.7849 50.6789C45.9143 49.2287 47.497 48.1987 49.2804 47.7534ZM17.0042 47.5221C21.5638 47.5221 25.2691 51.2322 25.2691 55.7871C25.2691 60.342 21.5638 64.052 17.0089 64.052C12.454 64.052 8.73928 60.3467 8.73928 55.7918C8.73928 51.2369 12.4493 47.5221 17.0042 47.5221ZM93.2954 75.9608C92.9224 78.0592 92.0911 80.0494 90.8607 81.7897C89.6304 83.5299 88.0313 84.9774 86.1775 86.0289C82.5997 88.0963 78.2052 88.7524 73.5795 89.4085C70.9786 89.7417 68.3953 90.2001 65.8385 90.782C59.018 92.4576 52.4617 95.7381 46.099 98.8865C37.9615 102.917 30.2866 106.722 23.1734 106.722C19.5258 106.745 15.9654 105.607 13.0063 103.474C5.7892 98.49 6.14793 89.1441 7.00227 84.0275C7.79053 79.2366 9.98539 74.7478 12.0858 70.4477C12.218 70.1881 12.3171 69.9569 12.4493 69.6925C13.1667 69.9569 13.922 70.1551 14.7102 70.2873C13.4641 77.24 17.0042 84.4193 23.8956 87.9641L25.1417 88.6202L26.4822 88.1293C32.2219 86.0949 37.5367 82.7814 42.2285 78.3539C44.8194 75.9381 47.1094 73.2185 49.0491 70.2542C49.8043 70.3817 50.5595 70.4147 51.3147 70.4147C54.5616 70.4072 57.7148 69.3258 60.283 67.3391C62.8511 65.3523 64.6899 62.5719 65.5128 59.431H71.0212C71.8387 62.5767 73.6774 65.3619 76.2487 67.3498C78.8201 69.3377 81.9786 70.4157 85.2288 70.4147C87.9476 70.4147 90.4681 69.6595 92.6393 68.3851C93.489 70.8395 93.7533 73.4025 93.2954 75.9608Z" fill="#797474"/>
</svg>
