<svg width="40" height="40" viewBox="0 0 40 40" fill="none" xmlns="http://www.w3.org/2000/svg">
<path d="M35.0422 0C36.2039 0 37.318 0.465769 38.1395 1.29484C38.961 2.12392 39.4224 3.24839 39.4224 4.42088V35.367C39.4224 36.5395 38.961 37.664 38.1395 38.493C37.318 39.3221 36.2039 39.7879 35.0422 39.7879H4.38027C3.21855 39.7879 2.10441 39.3221 1.28295 38.493C0.461491 37.664 0 36.5395 0 35.367V4.42088C0 3.24839 0.461491 2.12392 1.28295 1.29484C2.10441 0.465769 3.21855 0 4.38027 0H35.0422ZM33.9471 34.2618V22.5465C33.9471 20.6353 33.1949 18.8024 31.8559 17.451C30.5169 16.0996 28.7009 15.3404 26.8073 15.3404C24.9456 15.3404 22.7774 16.4899 21.7261 18.214V15.7604H15.6157V34.2618H21.7261V23.3643C21.7261 21.6623 23.084 20.2697 24.7704 20.2697C25.5836 20.2697 26.3635 20.5958 26.9386 21.1761C27.5136 21.7565 27.8366 22.5436 27.8366 23.3643V34.2618H33.9471ZM8.49773 12.29C9.47357 12.29 10.4095 11.8988 11.0995 11.2024C11.7895 10.5059 12.1772 9.56139 12.1772 8.5765C12.1772 6.52079 10.5346 4.84086 8.49773 4.84086C7.51607 4.84086 6.57463 5.23443 5.88049 5.935C5.18636 6.63557 4.7964 7.58575 4.7964 8.5765C4.7964 10.6322 6.4609 12.29 8.49773 12.29ZM11.542 34.2618V15.7604H5.47534V34.2618H11.542Z" fill="white"/>
</svg>
