<svg width="86" height="60" viewBox="0 0 86 60" fill="none" xmlns="http://www.w3.org/2000/svg">
<path d="M20.1325 57.2303L20.1426 57.2404L20.153 57.2502C21.3213 58.3535 22.8024 58.8803 24.5118 58.8803C26.2637 58.8803 27.7754 58.3599 28.9503 57.2502L28.9515 57.2491C30.1605 56.1037 30.7805 54.671 30.7805 53.0107V12.1803H36.6018V53.0107C36.6018 54.7248 37.3465 56.1694 38.7248 57.2971L38.7356 57.3059L38.7466 57.3144C40.0939 58.3555 41.6398 58.8803 43.3495 58.8803C44.9334 58.8803 46.2726 58.3272 47.2348 57.1589L47.2436 57.1481L47.2522 57.1371C48.1526 55.9794 48.5804 54.5841 48.5804 53.0107V38.5239H62.5085C63.6489 38.5239 64.5959 38.673 65.3688 38.9458L65.3939 38.9547L65.4195 38.9622C66.1863 39.1877 66.7782 39.5357 67.2297 39.9872L67.2465 40.004L67.2642 40.0201C67.728 40.4417 68.0974 40.9772 68.3654 41.6472L68.37 41.6586L68.3748 41.6698C68.6349 42.2766 68.7729 42.9655 68.7729 43.7505C68.7729 46.5717 69.0429 48.9409 69.6142 50.826L69.6182 50.8392L69.6225 50.8522C70.2359 52.6925 71.0347 54.2266 72.0445 55.4146L72.0527 55.4243L72.0612 55.4337C73.0157 56.5006 73.9982 57.3466 75.0136 57.9439L75.0275 57.9521L75.0417 57.9599C75.7298 58.3352 76.5663 58.6277 77.5267 58.8537L77.5542 58.8601L77.582 58.865C78.6017 59.045 79.6241 59.045 80.6438 58.865L80.6716 58.8601L80.699 58.8537C81.8021 58.5941 82.7333 58.0336 83.4595 57.1797C84.5649 55.9387 84.9512 54.4684 84.5592 52.8712C84.2334 51.2726 83.3446 50.0281 81.9366 49.1961L81.9195 49.186L81.902 49.1766C81.4179 48.9159 81.1129 48.5717 80.9362 48.1315C80.7548 47.5311 80.6094 46.7672 80.5092 45.8266C80.4533 44.7879 80.3181 43.6033 80.1069 42.2767C79.9889 40.7486 79.618 39.3181 78.9883 37.9939C78.4099 36.614 77.578 35.3554 76.5026 34.2193C76.1272 33.7833 75.7167 33.3718 75.2719 32.9845C76.0451 32.379 76.7732 31.6951 77.4562 30.9342C78.9669 29.31 80.1462 27.4861 80.9894 25.4661C81.8924 23.4304 82.3481 21.3269 82.3481 19.1632C82.3481 15.6591 81.5682 12.5283 79.9789 9.8021C78.4098 7.05771 76.324 4.90869 73.7229 3.37935C71.1757 1.79708 68.4158 1 65.4621 1H42.4714C42.4457 1 42.42 1.00014 42.3944 1.00043C42.3676 1.00014 42.3406 1 42.3136 1H6.86957C5.26274 1 3.85006 1.50171 2.6941 2.52864C1.54249 3.54548 1 4.92694 1 6.55025C1 8.17502 1.54229 9.56827 2.67173 10.6313L2.68209 10.641L2.69273 10.6505C3.84894 11.6782 5.2621 12.1803 6.86957 12.1803H18.4027V53.0107C18.4027 54.6533 18.9826 56.0803 20.1325 57.2303ZM65.063 28.3015H48.5804V12.1803H65.063C66.0771 12.1803 67.1457 12.7291 68.2608 14.1836L68.2722 14.1984L68.284 14.2128C69.3886 15.5474 69.9703 17.2526 69.9703 19.4027C69.9703 21.1006 69.6964 22.6538 69.1592 24.072C68.6147 25.4562 67.9413 26.5221 67.1606 27.3064C66.3889 28.0291 65.6945 28.3015 65.063 28.3015Z" fill="#FDE89F" stroke="#0F756D" stroke-width="2"/>
</svg>
