<svg width="86" height="60" viewBox="0 0 86 60" fill="none" xmlns="http://www.w3.org/2000/svg">
<path d="M20.1325 57.2303L20.1426 57.2404L20.153 57.2502C21.3213 58.3535 22.8024 58.8803 24.5118 58.8803C26.2637 58.8803 27.7754 58.3599 28.9503 57.2502L28.9515 57.2491C30.1605 56.1037 30.7805 54.671 30.7805 53.0107V12.1803H36.6018V53.0107C36.6018 54.7248 37.3465 56.1694 38.7248 57.2971L38.7356 57.3059L38.7466 57.3144C40.0939 58.3555 41.6398 58.8803 43.3495 58.8803C44.9334 58.8803 46.2726 58.3272 47.2348 57.1589L47.2436 57.1481L47.2522 57.1371C48.1526 55.9794 48.5804 54.5841 48.5804 53.0107V38.5239H62.5085C63.6489 38.5239 64.5959 38.673 65.3688 38.9458L65.3939 38.9547L65.4195 38.9622C66.1863 39.1877 66.7782 39.5357 67.2297 39.9872L67.2466 40.004L67.2642 40.0201C67.728 40.4417 68.0974 40.9772 68.3654 41.6472L68.37 41.6586L68.3748 41.6698C68.6349 42.2767 68.7729 42.9655 68.7729 43.7505C68.7729 46.5717 69.0429 48.9409 69.6142 50.826L69.6181 50.8392L69.6225 50.8522C70.2359 52.6925 71.0347 54.2266 72.0445 55.4146L72.0527 55.4243L72.0612 55.4337C73.0157 56.5006 73.9982 57.3466 75.0136 57.9439L75.0275 57.9521L75.0417 57.9599C75.7298 58.3352 76.5663 58.6277 77.5267 58.8537L77.5542 58.8601L77.582 58.865C78.6017 59.045 79.6241 59.045 80.6438 58.865L80.6715 58.8601L80.699 58.8537C81.8021 58.5941 82.7333 58.0336 83.4596 57.1796C84.5649 55.9386 84.9512 54.4683 84.5592 52.8712C84.2334 51.2726 83.3446 50.0281 81.9366 49.1961L81.9195 49.186L81.902 49.1766C81.4179 48.9159 81.1129 48.5717 80.9361 48.1315C80.7548 47.5311 80.6094 46.7671 80.5092 45.8266C80.4533 44.7879 80.3181 43.6034 80.1069 42.2768C79.9889 40.7486 79.618 39.318 78.9883 37.9937C78.4099 36.6139 77.578 35.3553 76.5026 34.2193C76.1273 33.7833 75.7167 33.3718 75.2719 32.9844C76.0451 32.3789 76.7732 31.6951 77.4562 30.9341C78.9669 29.3099 80.1462 27.4861 80.9894 25.4661C81.8924 23.4304 82.3481 21.3269 82.3481 19.1632C82.3481 15.6591 81.5681 12.5282 79.9788 9.80207C78.4098 7.05769 76.3239 4.90868 73.7229 3.37935C71.1757 1.79708 68.4158 1 65.4621 1H42.4714C42.4457 1 42.42 1.00014 42.3944 1.00043C42.3676 1.00014 42.3406 1 42.3136 1H6.86957C5.26274 1 3.85006 1.50171 2.6941 2.52864C1.54249 3.54548 1 4.92694 1 6.55025C1 8.17502 1.54229 9.56827 2.67173 10.6313L2.68209 10.641L2.69273 10.6505C3.84894 11.6782 5.2621 12.1803 6.86957 12.1803H18.4027V53.0107C18.4027 54.6533 18.9826 56.0803 20.1325 57.2303ZM30.7805 10.1803V6.70991V5.70991H29.7805H19.4027H18.4027V6.70991V10.1803H6.86957C5.71509 10.1803 4.7899 9.83422 4.03221 9.16519C3.35879 8.52636 3 7.68713 3 6.55025C3 5.4068 3.3618 4.60673 4.01871 4.0271L4.01872 4.02711L4.02146 4.02467C4.78114 3.3494 5.70963 3 6.86957 3H37.998C37.0606 4.06344 36.6018 5.37379 36.6018 6.86956V10.1803H30.7805ZM38.6018 53.0107V12.1803H42.3136C43.4842 12.1803 44.5471 11.9283 45.4711 11.4027L45.1795 12.1803H46.5804V28.3015H46.4628H44.7218L45.5991 29.8054L46.7167 31.7213L47.7822 33.5479L46.7428 35.1415L45.5454 36.9776L44.537 38.5239H46.383H46.5804V53.0107C46.5804 54.1988 46.2663 55.1417 45.6822 55.898C45.1548 56.5325 44.4207 56.8803 43.3495 56.8803C42.0837 56.8803 40.9722 56.5031 39.9807 55.7405C39.0248 54.9544 38.6018 54.0601 38.6018 53.0107ZM48.5804 10.1803V8.6258L47.8945 8.50141C48.0875 7.92212 48.1832 7.29621 48.1832 6.63008C48.1832 5.21938 47.754 3.98906 46.8802 3H65.4621C68.039 3 70.4377 3.69078 72.6772 5.08427L72.6882 5.09109L72.6993 5.09763C74.988 6.44098 76.8359 8.33308 78.2446 10.7984L78.2491 10.8061C79.6386 13.1881 80.3481 15.9633 80.3481 19.1632C80.3481 21.0405 79.9538 22.8716 79.157 24.6644L79.1523 24.6751L79.1478 24.6859C78.3958 26.4906 77.3435 28.1201 75.9861 29.578L75.9797 29.5849L75.9734 29.5919C75.2349 30.4157 74.4434 31.1312 73.5989 31.7406C73.266 31.5289 72.9197 31.3268 72.5602 31.1342L71.158 30.383L71.0889 31.9722L71.009 33.8083L70.9362 35.4828L72.4444 34.7516C72.8226 34.5682 73.1924 34.37 73.5538 34.157C74.098 34.5875 74.5796 35.0489 75.0008 35.5403L75.0175 35.5597L75.0351 35.5783C75.9674 36.5597 76.6696 37.6287 77.152 38.7866L77.1619 38.8103L77.173 38.8335C77.7014 39.9384 78.0178 41.1467 78.1156 42.4673L78.1187 42.5096L78.1254 42.5514C78.3344 43.8576 78.4625 44.992 78.5134 45.9585L78.5148 45.9846L78.5175 46.0106C78.6282 47.0624 78.7975 47.9818 79.0352 48.7545L79.0453 48.7874L79.0577 48.8194C79.4124 49.7418 80.0557 50.4486 80.9344 50.927C81.8521 51.4741 82.3936 52.2412 82.6027 53.2866L82.6074 53.31L82.6132 53.3331C82.8492 54.2771 82.6517 55.0832 81.9599 55.8564L81.9507 55.8667L81.9418 55.8772C81.5042 56.3944 80.9569 56.733 80.2677 56.9004C79.4966 57.0332 78.728 57.0332 77.9569 56.9002C77.1296 56.7037 76.4894 56.4691 76.0134 56.2117C75.2264 55.7462 74.4071 55.0547 73.5603 54.1098C72.7661 53.1724 72.0791 51.8932 71.5243 50.2331C71.0337 48.6072 70.7729 46.4571 70.7729 43.7505C70.7729 42.7305 70.5931 41.7733 70.2179 40.8932C69.8505 39.9791 69.3225 39.1934 68.627 38.5561C67.9164 37.8516 67.033 37.356 66.0094 37.0511C64.9789 36.6913 63.8056 36.5239 62.5085 36.5239H48.5804V35.6878V34.9163V32.3239V31.2174V30.3015H65.063C66.3444 30.3015 67.5091 29.7249 68.5424 28.7524L68.5534 28.7421L68.5641 28.7313C69.5872 27.7082 70.3995 26.3846 71.023 24.7976L71.023 24.7976L71.0272 24.7866C71.6595 23.1195 71.9703 21.3217 71.9703 19.4027C71.9703 16.8765 71.2786 14.7016 69.8367 12.952C68.5061 11.2222 66.9174 10.1803 65.063 10.1803H48.5804ZM48.5804 28.3015V12.1803H65.063C66.0771 12.1803 67.1457 12.7291 68.2608 14.1836L68.2722 14.1984L68.284 14.2128C69.3886 15.5474 69.9703 17.2526 69.9703 19.4027C69.9703 21.1005 69.6964 22.6538 69.1592 24.072C68.6147 25.4562 67.9413 26.5221 67.1606 27.3064C66.3889 28.0291 65.6945 28.3015 65.063 28.3015H48.5804ZM39.666 4.14403C40.4146 3.39541 41.3052 3.01733 42.3953 3.00058C43.5159 3.01664 44.3798 3.36443 45.0609 4.00546L45.0713 4.01522L45.0819 4.02468C45.8079 4.67005 46.1832 5.50642 46.1832 6.63008C46.1832 7.75307 45.8084 8.58911 45.0832 9.23433C44.3881 9.84706 43.491 10.1803 42.3136 10.1803H38.6018V6.86956C38.6018 5.72723 38.9651 4.845 39.666 4.14403ZM28.7805 10.1803H20.4027V7.70991H28.7805V10.1803ZM20.4027 12.1803H28.7805V53.0107C28.7805 54.1173 28.3896 55.026 27.5769 55.7963C26.836 56.496 25.8465 56.8803 24.5118 56.8803C23.2467 56.8803 22.2828 56.5057 21.5366 55.8058C20.7774 55.042 20.4027 54.1305 20.4027 53.0107V12.1803Z" fill="#FDE89F" stroke="#0F756D" stroke-width="2"/>
</svg>
