<svg width="274" height="73" viewBox="0 0 274 73" fill="none" xmlns="http://www.w3.org/2000/svg">
<path d="M21.2398 7.39055C18.457 4.08863 16.06 0.735345 15.5709 0.0385716C15.5593 0.0263808 15.5453 0.0166773 15.5298 0.0100477C15.5143 0.0034181 15.4976 0 15.4807 0C15.4639 0 15.4472 0.0034181 15.4317 0.0100477C15.4162 0.0166773 15.4022 0.0263808 15.3905 0.0385716C14.9009 0.735345 12.5045 4.08863 9.72164 7.39055C-14.1651 37.8549 13.4838 58.4134 13.4838 58.4134L13.7155 58.5686C13.9215 61.741 14.4369 66.307 14.4369 66.307H16.4983C16.4983 66.307 17.0137 61.7667 17.2197 58.5686L17.452 58.3877C17.4777 58.4134 45.126 37.8549 21.2398 7.39055ZM15.4676 57.9494C15.4676 57.9494 14.2309 56.8914 13.8959 56.3504V56.2985L15.3905 23.1257C15.3905 23.0225 15.5452 23.0225 15.5452 23.1257L17.0394 56.2985V56.3504C16.7044 56.8914 15.4676 57.9494 15.4676 57.9494Z" fill="#0B6F35"/>
<path d="M67.2103 51.1802L55.6884 23.04L55.6632 22.9624H46.6993V24.8537H48.1453C48.5847 24.8537 48.9978 25.0356 49.3082 25.346C49.6181 25.657 49.7733 26.0717 49.7733 26.5127L49.5148 54.8331C49.5148 55.7145 48.7918 56.4397 47.9131 56.4659L46.4409 56.4916V58.3571H55.1725V56.4916L54.2681 56.4659C53.3899 56.4397 52.6663 55.7145 52.6663 54.8337V28.1438L65.2211 58.3566C65.402 58.797 65.8151 59.0823 66.2807 59.0823C66.7452 59.0823 67.1584 58.797 67.3392 58.3566L79.6104 28.8176L79.7913 54.8331C79.7913 55.7397 79.0677 56.4654 78.1633 56.4911H77.2332V58.3566H87.4633V56.4911H86.0681C85.1904 56.4911 84.4664 55.7397 84.4412 54.8588L84.3631 26.5373C84.3627 26.1071 84.5296 25.6936 84.8285 25.3843C85.1274 25.0749 85.5349 24.8938 85.9648 24.8794L87.4633 24.8532V22.9619H78.7316L67.2097 51.1796L67.2103 51.1802ZM147.544 55.9987C147.259 55.7135 147.104 55.3244 147.104 54.8567V40.9448C147.104 38.2974 146.327 36.2204 144.773 34.7412C143.245 33.2615 141.121 32.5091 138.48 32.5091C134.775 32.5091 131.849 34.0145 129.803 36.9734C129.777 37.0253 129.699 37.0515 129.622 37.0515C129.544 37.0515 129.492 36.9991 129.492 36.9215L128.534 33.2096H126.928L122.81 35.5718V36.8696H123.872C124.364 36.8696 124.778 36.9991 125.063 37.2591C125.348 37.5187 125.503 37.9078 125.503 38.4525V54.831C125.503 55.2982 125.348 55.6878 125.063 55.9736C124.778 56.2588 124.39 56.4145 123.923 56.4145H122.887V58.309H132.367V56.4145H131.331C130.864 56.4145 130.476 56.2588 130.191 55.9736C129.906 55.6878 129.751 55.2982 129.751 54.831V43.9812C129.751 42.6059 130.062 41.23 130.632 39.8798C131.227 38.5564 132.108 37.44 133.273 36.5832C134.439 35.727 135.838 35.3117 137.443 35.3117C139.256 35.3117 140.629 35.8827 141.484 37.0247C142.338 38.1668 142.779 39.6465 142.779 41.4114V54.8048C142.779 55.272 142.623 55.661 142.338 55.9468C142.053 56.2326 141.665 56.3878 141.198 56.3878H140.163V58.2828H149.642V56.3883H148.606C148.218 56.4402 147.855 56.2845 147.544 55.9987ZM234.15 25.0811C231.53 23.686 228.602 22.9619 225.442 22.9619H213.111V24.8483H214.318C214.781 24.8483 215.192 25.0292 215.603 25.4424C215.988 25.8304 216.193 26.2697 216.193 26.7348V54.5361C216.193 55.0017 215.988 55.4405 215.603 55.8285C215.217 56.216 214.781 56.4226 214.318 56.4226H213.111V58.309H225.442C228.602 58.309 231.53 57.5855 234.15 56.1898C236.77 54.7946 238.902 52.7273 240.444 50.0922C241.985 47.4571 242.782 44.2788 242.782 40.6611C242.782 37.044 241.985 33.8914 240.444 31.2306C238.877 28.5436 236.77 26.502 234.151 25.0811H234.15ZM237.824 40.6098C237.824 43.917 237.233 46.7073 236.077 48.9555C234.921 51.2032 233.379 52.8825 231.479 53.9683C229.578 55.0531 227.471 55.5957 225.21 55.5957H222.719C222.256 55.5957 221.845 55.4149 221.434 55.0017C221.049 54.6137 220.843 54.1749 220.843 53.7099V27.484C220.843 27.0184 221.023 26.6058 221.434 26.1921C221.82 25.8047 222.256 25.5981 222.719 25.5981H225.21C227.471 25.5981 229.577 26.1402 231.479 27.2255C233.379 28.3108 234.921 29.9901 236.077 32.2383C237.233 34.5117 237.824 37.3282 237.824 40.6098ZM271.928 42.4962C270.788 41.1781 268.587 40.0671 265.999 39.4726C269.573 37.6899 271.409 35.1838 271.409 31.9536C271.409 30.1972 270.945 28.6207 270.011 27.2774C269.08 25.9342 267.758 24.8483 266.076 24.0991C264.392 23.3499 262.423 22.9624 260.197 22.9624H246.239V24.8483H247.352C247.819 24.8483 248.233 25.0292 248.647 25.4424C249.036 25.8304 249.243 26.2697 249.243 26.7348V54.5361C249.243 55.0017 249.036 55.4405 248.647 55.8285C248.259 56.216 247.819 56.4226 247.352 56.4226H246.135V58.309H261.286C263.59 58.309 265.738 57.9215 267.681 57.1461C269.624 56.3712 271.178 55.234 272.292 53.7355C273.43 52.2371 274 50.4021 274 48.2834C273.974 46.01 273.301 44.0717 271.928 42.4962ZM254.552 55.0274C254.163 54.6399 253.956 54.2006 253.956 53.7355V41.2552H261.156C263.692 41.2552 265.635 41.9011 266.982 43.1924C268.328 44.4848 269.002 46.1641 269.002 48.2315C269.002 49.4714 268.69 50.6862 268.122 51.7972C267.526 52.9339 266.644 53.8383 265.455 54.5361C264.288 55.2334 262.838 55.5957 261.156 55.5957H255.846C255.38 55.5957 254.966 55.4143 254.551 55.0269L254.552 55.0274ZM253.982 38.5944V27.5097C253.982 27.0446 254.163 26.6315 254.578 26.2178C254.966 25.8304 255.407 25.6238 255.873 25.6238H259.291C261.75 25.6238 263.564 26.244 264.704 27.4326C265.842 28.6469 266.412 30.1972 266.412 32.1088C266.412 34.0728 265.868 35.6489 264.807 36.8374C263.744 37.9998 262.139 38.5944 260.016 38.5944H253.982ZM111.457 34.1563C109.478 33.0753 107.268 32.508 104.878 32.508C102.551 32.508 100.37 33.0212 98.4538 34.0707L98.2991 34.1563C96.3201 35.2379 94.7526 36.8085 93.5961 38.7913C92.4402 40.7741 91.8489 43.0918 91.8489 45.6665C91.8489 48.2416 92.4397 50.5594 93.5961 52.5421C94.7526 54.5249 96.3201 56.0956 98.2991 57.1766C100.278 58.2581 102.488 58.8249 104.878 58.8249C107.205 58.8249 109.386 58.3122 111.302 57.2633L111.457 57.1771C113.435 56.0956 115.003 54.5249 116.16 52.5421C117.316 50.5594 117.907 48.2416 117.907 45.6665C117.907 43.0918 117.316 40.7741 116.16 38.7913C115.003 36.8085 113.436 35.2379 111.457 34.1568V34.1563ZM113.358 45.6665C113.358 48.834 112.588 51.4087 111.045 53.263C109.529 55.1168 107.448 56.0694 104.878 56.0694C102.354 56.0694 100.301 55.1505 98.792 53.3615L98.7106 53.263C97.1683 51.4087 96.3972 48.834 96.3972 45.6665C96.3972 42.5572 97.141 40.0184 98.6272 38.1721L98.7106 38.0704C100.226 36.2167 102.308 35.2635 104.878 35.2635C107.448 35.2635 109.529 36.2161 111.045 38.0704C112.588 39.9248 113.358 42.4994 113.358 45.6665ZM202.532 34.1563C200.553 33.0753 198.343 32.508 195.953 32.508C193.626 32.508 191.445 33.0212 189.529 34.0707L189.374 34.1563C187.396 35.2379 185.828 36.8085 184.672 38.7913C183.515 40.7741 182.924 43.0918 182.924 45.6665C182.924 48.2416 183.515 50.5594 184.672 52.5421C185.828 54.5249 187.396 56.0956 189.375 57.1766C191.353 58.2581 193.563 58.8249 195.953 58.8249C198.28 58.8249 200.461 58.3122 202.377 57.2633L202.533 57.1771C204.511 56.0956 206.078 54.5249 207.235 52.5421C208.391 50.5594 208.982 48.2416 208.982 45.6665C208.982 43.0918 208.391 40.7741 207.235 38.7913C206.079 36.8085 204.485 35.2379 202.532 34.1568V34.1563ZM204.434 45.6665C204.434 48.834 203.663 51.4087 202.121 53.263C200.604 55.1168 198.523 56.0694 195.953 56.0694C193.429 56.0694 191.376 55.1505 189.868 53.3615L189.786 53.263C188.244 51.4087 187.473 48.834 187.473 45.6665C187.473 42.5315 188.216 40.0173 189.702 38.1721L189.786 38.0704C191.302 36.2167 193.384 35.2635 195.953 35.2635C198.523 35.2635 200.604 36.2161 202.121 38.0704C203.637 39.9248 204.434 42.4994 204.434 45.6665ZM165.803 32.5086C163.732 32.5086 161.843 32.9479 160.135 33.8277C158.427 34.707 157.081 35.8972 156.123 37.4234C155.171 38.9044 154.668 40.6295 154.674 42.3902C154.674 43.9941 155.036 45.4684 155.787 46.7881C156.511 48.0554 157.495 49.1161 158.737 49.9953L155.036 55.014C154.571 55.6348 154.519 56.4627 154.855 57.1354C155.217 57.8338 155.89 58.2474 156.667 58.2474H157.728C156.736 58.9169 155.934 59.7052 155.368 60.6342L155.295 60.7568C154.622 61.8688 154.286 63.0333 154.286 64.223C154.286 66.408 155.234 68.219 157.107 69.5815L157.21 69.6554C159.126 71.0264 161.817 71.7248 165.208 71.7248C167.563 71.7248 169.815 71.3368 171.86 70.5865C173.871 69.8582 175.515 68.7873 176.747 67.3991L176.854 67.2761C178.122 65.8269 178.769 64.0678 178.769 62.0503C178.769 59.9289 177.993 58.4283 176.181 56.9802C174.628 55.7643 172.196 55.1178 169.167 55.1178H158.815C158.8 55.1165 158.786 55.1105 158.774 55.1007L158.763 55.0916L158.758 55.0809C158.753 55.0643 158.744 55.0328 158.763 55.014L161.455 51.3926C162.092 51.6896 162.761 51.915 163.448 52.0648C164.069 52.1943 164.768 52.2462 165.544 52.2462C167.718 52.2462 169.685 51.8063 171.393 50.927C173.102 50.0472 174.473 48.8576 175.457 47.3308C176.44 45.8307 176.932 44.1493 176.932 42.3645C176.932 40.4503 176.001 36.9579 173.464 35.1731C173.464 35.1571 173.473 35.1512 173.481 35.1485L173.49 35.1469L179.054 35.7677V33.2069H170.151C168.753 32.767 167.304 32.5086 165.803 32.5086ZM168.909 48.7024C167.925 49.2194 166.864 49.5041 165.803 49.5041C164.069 49.5041 162.542 48.8833 161.248 47.6674C159.954 46.4515 159.307 44.6668 159.307 42.3902C159.307 40.1137 159.954 38.3284 161.248 37.113C162.542 35.8972 164.069 35.2764 165.803 35.2764C166.845 35.2764 167.839 35.514 168.786 36.0117L168.909 36.0781C169.892 36.5956 170.694 37.3978 171.341 38.4584C171.962 39.5191 172.299 40.8383 172.299 42.3902C172.299 43.9684 171.988 45.2876 171.341 46.322C170.721 47.3827 169.892 48.1844 168.909 48.7019V48.7024ZM161.895 58.2218H168.909C170.85 58.2218 172.092 58.6097 172.92 59.4376C173.749 60.2655 174.162 61.3776 174.162 62.671C174.162 64.5596 173.412 66.1121 171.911 67.2755C170.41 68.44 168.391 69.0346 165.906 69.0346C163.732 69.0346 161.921 68.5433 160.6 67.6121C159.281 66.681 158.608 65.2575 158.608 63.447C158.608 62.3087 158.918 61.2481 159.54 60.3169C160.16 59.3857 160.911 58.713 161.894 58.2218H161.895Z" fill="#797474"/>
</svg>
