<svg width="256" height="156" viewBox="0 0 256 156" fill="none" xmlns="http://www.w3.org/2000/svg">
<path d="M126.13 156C125.293 156 124.456 155.761 123.698 155.363L116.042 150.826C114.885 150.19 115.443 149.951 115.842 149.831C117.358 149.314 117.677 149.195 119.312 148.24C119.471 148.16 119.71 148.2 119.87 148.279L125.772 151.781C125.971 151.901 126.29 151.901 126.489 151.781L149.538 138.489C149.738 138.37 149.897 138.131 149.897 137.852V111.308C149.897 111.029 149.777 110.79 149.538 110.671L126.489 97.4182C126.29 97.2988 126.011 97.2988 125.772 97.4182L102.723 110.671C102.484 110.79 102.364 111.069 102.364 111.308V137.852C102.364 138.091 102.523 138.33 102.723 138.449L109.023 142.071C112.453 143.782 114.566 141.753 114.566 139.763V113.536C114.566 113.178 114.845 112.86 115.244 112.86H118.155C118.514 112.86 118.833 113.138 118.833 113.536V139.763C118.833 144.339 116.361 146.926 112.014 146.926C110.698 146.926 109.621 146.926 106.71 145.493L100.649 142.031C99.1737 141.156 98.2167 139.564 98.2167 137.852V111.308C98.2167 109.596 99.1338 107.965 100.649 107.129L123.698 93.8365C125.173 93.0007 127.088 93.0007 128.523 93.8365L151.572 107.129C153.047 108.004 154.004 109.596 154.004 111.308V137.852C154.004 139.564 153.087 141.195 151.572 142.031L128.523 155.323C127.845 155.761 127.008 156 126.13 156ZM144.753 129.813C144.753 124.839 141.403 123.525 134.305 122.57C127.127 121.615 126.41 121.137 126.41 119.466C126.41 118.073 127.008 116.242 132.311 116.242C137.057 116.242 138.811 117.277 139.529 120.461C139.609 120.779 139.848 120.978 140.167 120.978H143.158C143.357 120.978 143.517 120.899 143.636 120.779C143.756 120.62 143.836 120.461 143.796 120.262C143.317 114.77 139.689 112.223 132.311 112.223C125.732 112.223 121.824 115.009 121.824 119.625C121.824 124.679 125.732 126.033 132.032 126.669C139.569 127.425 140.167 128.5 140.167 129.973C140.167 132.559 138.094 133.634 133.229 133.634C127.127 133.634 125.772 132.122 125.333 129.097C125.293 128.779 125.014 128.54 124.655 128.54H121.664C121.305 128.54 120.986 128.818 120.986 129.216C120.986 133.077 123.1 137.693 133.189 137.693C140.566 137.693 144.753 134.828 144.753 129.813ZM166.486 109.875C166.486 112.302 164.492 114.292 162.06 114.292C159.627 114.292 157.633 112.302 157.633 109.875C157.633 107.368 159.707 105.457 162.06 105.457C164.452 105.418 166.486 107.368 166.486 109.875ZM165.768 109.875C165.768 107.805 164.093 106.174 162.02 106.174C159.986 106.174 158.311 107.805 158.311 109.875C158.311 111.944 159.986 113.616 162.02 113.616C164.093 113.576 165.768 111.904 165.768 109.875ZM163.974 112.342H162.937C162.897 112.103 162.737 110.83 162.737 110.79C162.658 110.512 162.578 110.352 162.219 110.352H161.342V112.342H160.385V107.368H162.099C162.698 107.368 163.854 107.368 163.854 108.681C163.854 109.596 163.256 109.795 162.897 109.915C163.575 109.954 163.615 110.392 163.734 111.029C163.774 111.427 163.854 112.103 163.974 112.342ZM162.857 108.84C162.857 108.164 162.379 108.164 162.139 108.164H161.342V109.556H162.099C162.737 109.556 162.857 109.119 162.857 108.84ZM54.7509 52.1288C54.7509 51.0543 54.1926 50.0991 53.2755 49.5818L28.831 35.5333C28.4322 35.2945 27.9537 35.1751 27.4751 35.1353H27.2359C26.7574 35.1353 26.3187 35.2945 25.8801 35.5333L1.47544 49.5818C0.558276 50.0991 0 51.0941 0 52.1288L0.0398768 89.9363C0.0398768 90.4537 0.319015 90.9313 0.75766 91.2098C1.19631 91.4884 1.75458 91.4884 2.2331 91.2098L16.7483 82.8922C17.6654 82.335 18.2237 81.3799 18.2237 80.3452V62.6751C18.2237 61.6404 18.782 60.6454 19.6992 60.1281L25.8801 56.5861C26.3586 56.3075 26.8371 56.1881 27.3555 56.1881C27.8739 56.1881 28.3923 56.3075 28.831 56.5861L35.0119 60.1281C35.929 60.6454 36.4873 61.6404 36.4873 62.6751V80.3452C36.4873 81.3799 37.0456 82.3748 37.9628 82.8922L52.4779 91.2098C52.9166 91.4884 53.5147 91.4884 53.9534 91.2098C54.392 90.9711 54.6712 90.4537 54.6712 89.9363L54.7509 52.1288ZM188.418 10.8589V81.0615C188.418 82.0962 187.86 83.0912 186.943 83.6085L162.498 97.6968C161.581 98.2142 160.464 98.2142 159.547 97.6968L135.103 83.6085C134.186 83.0912 133.627 82.0962 133.627 81.0615V52.885C133.627 51.8502 134.186 50.8553 135.103 50.3379L159.547 36.2496C160.464 35.7323 161.581 35.7323 162.498 36.2496L168.599 39.7518C169.277 40.1498 170.155 39.6324 170.155 38.8763V1.46672C170.155 0.352397 171.351 -0.363956 172.348 0.193207L186.903 8.31188C187.82 8.78944 188.418 9.78438 188.418 10.8589ZM170.075 62.1577C170.075 61.8792 169.915 61.6404 169.716 61.521L161.342 56.6657C161.102 56.5463 160.823 56.5463 160.584 56.6657L152.21 61.521C151.971 61.6404 151.851 61.8792 151.851 62.1577V71.8285C151.851 72.1071 152.011 72.3459 152.21 72.4653L160.584 77.2808C160.823 77.4001 161.102 77.4001 161.302 77.2808L169.676 72.4653C169.915 72.3459 170.035 72.1071 170.035 71.8285V62.1577H170.075ZM253.736 61.8792C254.654 61.3618 255.212 60.3669 255.212 59.3321V52.5268C255.212 51.492 254.654 50.4971 253.736 49.9797L229.451 35.8915C228.534 35.3741 227.418 35.3741 226.501 35.8915L202.056 49.9797C201.139 50.4971 200.581 51.492 200.581 52.5268V80.7033C200.581 81.7779 201.139 82.733 202.056 83.2504L226.341 97.0601C227.218 97.5774 228.335 97.5774 229.252 97.0601L243.927 88.9016C244.924 88.3444 244.924 86.9117 243.927 86.3546L219.323 72.2663C218.844 71.9877 218.565 71.5101 218.565 70.9928V62.1577C218.565 61.6404 218.844 61.1628 219.323 60.8842L226.979 56.4667C227.418 56.1881 228.016 56.1881 228.454 56.4667L236.111 60.8842C236.549 61.1628 236.868 61.6404 236.868 62.1577V69.0825C236.868 70.1968 238.105 70.9132 239.102 70.356L253.736 61.8792ZM222.912 63.2721C222.752 63.3915 222.632 63.5507 222.632 63.7496V69.1621C222.632 69.3611 222.752 69.5601 222.912 69.6397L227.617 72.3459C227.777 72.4653 228.016 72.4653 228.175 72.3459L232.881 69.6397C233.04 69.5203 233.16 69.3611 233.16 69.1621V63.7496C233.16 63.5507 233.04 63.3517 232.881 63.2721L228.175 60.5658C228.016 60.4465 227.777 60.4465 227.617 60.5658L222.912 63.2721ZM121.545 80.5839V52.5666C121.545 51.5318 120.907 50.5369 119.989 50.0195L95.6247 36.0109C94.7873 35.5333 93.6308 35.4537 92.6738 36.0109L68.309 50.0195C67.3919 50.5369 66.7538 51.4921 66.7538 52.5666V80.5839C66.7538 81.6983 67.5115 82.6534 68.3489 83.131L92.7536 97.1397C93.7106 97.6968 94.8271 97.657 95.7044 97.1397L120.029 83.131C120.747 82.733 121.265 82.0564 121.465 81.2605C121.505 81.0615 121.545 80.8227 121.545 80.5839ZM91.9161 30.877L91.5971 31.076H92.0358L91.9161 30.877ZM122.302 82.6932L122.143 82.4146V82.7728L122.302 82.6932Z" fill="#797474"/>
</svg>
