<svg width="134" height="120" viewBox="0 0 134 120" fill="none" xmlns="http://www.w3.org/2000/svg">
<path d="M66.9934 48.0585C73.4123 48.0585 78.6471 53.2829 78.6471 59.8134C78.6471 66.0329 73.4123 71.3195 66.9934 71.3195C60.5745 71.3195 55.3397 66.0329 55.3397 59.8134C55.3397 53.2829 60.5745 48.0585 66.9934 48.0585ZM38.1395 109.57C42.0656 111.933 50.6657 108.326 60.5745 98.9964C57.3339 95.3269 54.1556 91.3464 51.1642 87.1793C46.1423 86.6996 41.1496 85.9522 36.2076 84.9403C33.0293 98.2501 34.2134 107.393 38.1395 109.57ZM42.5642 73.8695L40.7569 70.6976C40.0714 72.5012 39.3859 74.3049 38.9496 76.0463C40.6323 76.4195 42.5019 76.7305 44.4338 77.0415L42.5642 73.8695ZM83.3211 69.1427L88.3689 59.8134L83.3211 50.4841C81.4515 47.1877 79.4573 44.2646 77.65 41.3414C74.2848 41.1548 70.7326 41.1548 66.9934 41.1548C63.2542 41.1548 59.702 41.1548 56.3368 41.3414C54.5295 44.2646 52.5353 47.1877 50.6657 50.4841L45.6178 59.8134L50.6657 69.1427C52.5353 72.439 54.5295 75.3622 56.3368 78.2854C59.702 78.472 63.2542 78.472 66.9934 78.472C70.7326 78.472 74.2848 78.472 77.65 78.2854C79.4573 75.3622 81.4515 72.439 83.3211 69.1427ZM66.9934 27.3475C65.8093 28.7158 64.5629 30.1462 63.3165 31.8255H70.6702C69.4238 30.1462 68.1775 28.7158 66.9934 27.3475ZM66.9934 92.2793C68.1775 90.911 69.4238 89.4805 70.6702 87.8013H63.3165C64.5629 89.4805 65.8093 90.911 66.9934 92.2793ZM95.785 10.0572C91.9212 7.69376 83.3211 11.3011 73.4123 20.6304C76.6529 24.2999 79.8312 28.2804 82.8225 32.4475C87.9327 32.945 92.9806 33.6914 97.7792 34.6865C100.957 21.3767 99.7734 12.234 95.785 10.0572ZM91.4226 45.7573L93.2299 48.9292C93.9154 47.1256 94.6009 45.3219 95.0371 43.5804C93.3545 43.2073 91.4849 42.8963 89.553 42.5853L91.4226 45.7573ZM100.459 1.9096C109.62 7.134 110.617 20.8792 106.753 36.9255C122.582 41.5902 133.987 49.3024 133.987 59.8134C133.987 70.3244 122.582 78.0366 106.753 82.7012C110.617 98.7476 109.62 112.493 100.459 117.717C91.3603 122.942 78.9587 116.971 66.9934 105.589C55.0281 116.971 42.6265 122.942 33.4655 117.717C24.3669 112.493 23.3698 98.7476 27.2336 82.7012C11.4045 78.0366 0 70.3244 0 59.8134C0 49.3024 11.4045 41.5902 27.2336 36.9255C23.3698 20.8792 24.3669 7.134 33.4655 1.9096C42.6265 -3.3148 55.0281 2.65594 66.9934 14.0377C78.9587 2.65594 91.3603 -3.3148 100.459 1.9096ZM98.6516 59.8134C100.771 64.478 102.64 69.1427 104.198 73.8695C117.285 69.9512 124.639 64.3536 124.639 59.8134C124.639 55.2731 117.285 49.6756 104.198 45.7573C102.64 50.4841 100.771 55.1487 98.6516 59.8134ZM35.3351 59.8134C33.2163 55.1487 31.3467 50.4841 29.7887 45.7573C16.7016 49.6756 9.34791 55.2731 9.34791 59.8134C9.34791 64.3536 16.7016 69.9512 29.7887 73.8695C31.3467 69.1427 33.2163 64.478 35.3351 59.8134ZM91.4226 73.8695L89.553 77.0415C91.4849 76.7305 93.3545 76.4195 95.0371 76.0463C94.6009 74.3049 93.9154 72.5012 93.2299 70.6976L91.4226 73.8695ZM73.4123 98.9964C83.3211 108.326 91.9212 111.933 95.785 109.57C99.7734 107.393 100.957 98.2501 97.7792 84.9403C92.9806 85.9354 87.9327 86.6817 82.8225 87.1793C79.8312 91.3464 76.6529 95.3269 73.4123 98.9964ZM42.5642 45.7573L44.4338 42.5853C42.5019 42.8963 40.6323 43.2073 38.9496 43.5804C39.3859 45.3219 40.0714 47.1256 40.7569 48.9292L42.5642 45.7573ZM60.5745 20.6304C50.6657 11.3011 42.0656 7.69376 38.1395 10.0572C34.2134 12.234 33.0293 21.3767 36.2076 34.6865C41.1496 33.6745 46.1423 32.9271 51.1642 32.4475C54.1556 28.2804 57.3339 24.2999 60.5745 20.6304Z" fill="#797474"/>
</svg>
