<svg width="135" height="93" viewBox="0 0 135 93" fill="none" xmlns="http://www.w3.org/2000/svg">
<path d="M134.578 65.2262C134.192 62.0917 132.603 59.3728 129.845 57.135C129.811 57.0933 129.773 57.0546 129.732 57.0193L129.593 56.9194L129.548 56.8878L128.083 55.836L128.033 55.7992L127.847 55.6677C127.778 55.6278 127.705 55.5968 127.628 55.5757C122.995 52.8173 115.325 50.8845 103.589 55.0261C100.788 50.3139 100.47 46.5379 102.345 40.7528C102.679 39.7457 102.369 39.0804 101.369 38.6492C99.3605 37.7946 96.61 38.2311 94.6588 38.7465C93.749 38.9831 93.202 39.4985 93.0285 40.2795C91.7926 46.0645 88.2006 51.35 84.727 56.4513L84.5219 56.7511C82.3814 52.2125 82.8258 48.6967 84.3167 44.2922C84.6139 43.4139 84.3799 42.8302 83.5568 42.3937C81.2586 41.2077 77.8112 42.0229 76.4386 42.4279C74.6978 42.9354 72.8308 47.6396 70.7456 53.2722C70.2197 54.6895 69.7674 55.9017 69.4965 56.4671C68.8523 57.7819 68.237 59.2807 67.5848 60.8716C66.1123 64.4715 64.453 68.5237 62.0811 71.0691C61.2186 69.1626 62.5755 66.157 63.8929 63.2409C65.4522 59.7935 66.9248 56.5355 65.2287 54.4555C64.9605 54.1266 64.6278 53.8562 64.2511 53.6608C63.8744 53.4655 63.4616 53.3493 63.0383 53.3195C62.486 53.2775 61.9316 53.3676 61.4211 53.5825C61.5973 52.0968 61.6052 50.924 61.1713 49.5066C60.5507 47.4845 58.9388 46.3512 56.7195 46.4116C51.6654 46.5589 47.3898 50.3244 44.6892 53.4589C42.8906 55.5625 38.9042 57.1666 35.4042 58.5734C34.0211 59.1598 32.7063 59.6857 31.6097 60.2116C29.8611 58.7338 27.6391 57.2428 25.2988 55.6677C18.7249 51.2553 11.2753 46.2512 11.0176 39.467C10.6495 29.4457 22.0618 22.338 32.0226 17.2656C39.5721 13.4264 46.1355 10.881 52.0888 9.48993C60.4508 7.53616 67.5138 7.9306 73.078 10.6575C76.123 12.1484 77.5482 15.3907 76.6437 18.725C74.2771 27.3894 64.4714 33.3269 56.0857 35.9986C51.0343 37.6079 46.735 38.281 42.9379 38.0602C38.1784 37.784 34.2919 35.3964 32.63 34.3788C32.3638 34.1969 32.0822 34.0386 31.7886 33.9054L31.7123 33.887C31.5618 33.8496 31.4039 33.8543 31.2559 33.9007C31.108 33.9471 30.9756 34.0333 30.8735 34.15C30.5316 34.5576 30.6526 35.2018 30.7762 35.5279C32.3934 39.7536 35.7329 42.4226 40.7001 43.4613C42.3258 43.7868 43.9806 43.9445 45.6385 43.932C57.2638 43.932 72.0972 37.2292 77.5456 31.7098C81.2612 27.9495 83.967 24.084 85.0872 17.4181C86.2574 10.4366 81.5241 5.58503 76.7015 3.3499C64.9816 -2.05912 51.6707 0.078717 42.5671 2.82398C31.9174 6.03468 20.8995 11.8723 12.3429 18.8459C1.79311 27.4367 -2.01976 35.4122 1.00424 42.5777C4.10975 49.9221 11.6829 54.516 19.0062 58.9599C21.3728 60.393 23.6238 61.7578 25.6511 63.1672C25.0411 63.4644 24.4179 63.7668 23.7842 64.0692C17.6362 67.0485 10.6626 70.4012 6.79454 75.9417C3.98616 79.978 3.46025 83.996 5.23258 87.8851C6.17922 89.9546 7.86214 91.3588 10.1998 92.0583C11.4159 92.4028 12.6752 92.5702 13.9391 92.5552C18.4908 92.5552 23.5002 90.7145 26.227 89.0132C31.0444 85.9892 34.1657 81.9292 35.5068 76.9462C36.7006 72.5127 36.414 68.1082 34.6784 64.177L40.5818 61.2003C37.734 70.6668 39.9165 76.3203 42.3147 79.439C43.1982 80.5881 44.7918 81.2797 46.572 81.3112C48.3522 81.3428 49.9904 80.6722 50.916 79.531C52.6673 77.3616 53.961 74.8241 55.1522 72.2866C55.0891 73.9432 55.168 75.6208 55.7334 77.0434C56.2409 78.324 57.0771 79.1734 58.1552 79.4995C59.3017 79.8492 60.6454 79.5547 61.9391 78.6711C67.7689 74.6821 71.7553 65.1079 74.9581 57.4111C75.413 56.3172 75.8495 55.2654 76.2729 54.2819C77.0653 57.1177 78.1676 59.8576 79.5599 62.452C79.8701 63.0147 79.8439 63.2619 79.4231 63.7247C78.7894 64.4189 77.9059 65.2577 76.9697 66.1465C74.1351 68.8366 70.6062 72.1945 70.1329 75.1475C69.9488 76.3308 70.764 77.409 72.0288 77.6535C75.8338 78.4108 80.4171 77.3038 84.2931 74.6952C87.8167 72.3286 89.142 69.0285 88.2374 64.9159C87.3618 60.9558 89.3603 56.0385 94.1776 50.2903C94.9665 53.5851 96.0183 56.2488 97.4698 58.5813L97.4304 58.6128C93.9226 61.6763 89.1157 65.8704 89.8625 70.9586C89.9252 71.4425 90.088 71.9081 90.3406 72.3255C90.5933 72.7429 90.9302 73.1031 91.3298 73.3831C91.7569 73.6714 92.239 73.8684 92.7458 73.9616C93.2526 74.0548 93.7732 74.0423 94.2749 73.9248C98.8688 72.9597 102.327 71.0165 104.84 67.9898C107.354 64.9632 106.437 61.6079 105.59 59.0046C112.164 57.2218 118.017 57.2665 123.497 59.1361C126.574 60.1879 128.78 61.9156 130.053 64.3006C131.654 67.3009 130.789 70.0698 127.61 72.0972C126.634 72.7204 126.164 73.1017 126.135 73.5829C126.128 73.6946 126.149 73.8062 126.195 73.9083C126.24 74.0103 126.31 74.0999 126.398 74.1693C126.766 74.4717 127.902 74.9976 130.471 73.3805C132.837 71.8948 134.226 69.8726 134.581 67.3325C134.652 66.6321 134.651 65.9263 134.578 65.2262ZM29.4667 71.8159L29.4404 72.1525C29.0301 76.0021 27.0737 79.3575 23.6159 82.1448C21.4438 83.8961 19.0851 84.9716 16.9762 85.1767C15.5037 85.3187 14.4334 85.1188 13.7971 84.5798C13.3211 84.1775 13.0661 83.5753 13.0082 82.7391C12.577 76.039 23.0847 69.3809 28.9986 67.1905C29.4206 68.6937 29.579 70.2586 29.4667 71.8159ZM56.3802 52.9198C55.4073 58.4656 52.57 68.9339 48.1103 72.9965C47.8973 73.1911 47.7185 73.2595 47.6369 73.2411C47.5554 73.2227 47.4923 73.1254 47.4266 72.9781C45.9382 69.5281 46.4878 63.701 48.7414 59.123C50.4742 55.5941 52.9487 53.2564 55.715 52.549C55.8298 52.5174 55.9482 52.5006 56.0673 52.4991C56.1605 52.4925 56.2531 52.5175 56.3303 52.5701C56.3628 52.6216 56.3841 52.6793 56.3927 52.7396C56.4013 52.7999 56.3971 52.8613 56.3802 52.9198ZM78.3345 73.1359C77.4957 74.0116 76.3465 73.8932 76.6174 73.5724L80.8878 69.039C80.5433 70.5984 79.5257 71.8895 78.3345 73.1359ZM96.0499 69.2152C95.6437 69.4154 95.2043 69.5393 94.7535 69.5807C94.6325 67.1957 96.9439 64.5109 99.2237 62.7202C99.8364 65.2078 98.5821 67.8373 96.0499 69.2152Z" fill="#797474"/>
</svg>
