<svg width="107" height="107" viewBox="0 0 107 107" fill="none" xmlns="http://www.w3.org/2000/svg">
<path d="M96.5378 0H10.4622C7.68747 0 5.02636 1.10227 3.06431 3.06431C1.10227 5.02636 0 7.68747 0 10.4622V96.5378C0 99.3125 1.10227 101.974 3.06431 103.936C5.02636 105.898 7.68747 107 10.4622 107H96.5378C97.9117 107 99.2722 106.729 100.541 106.204C101.811 105.678 102.964 104.907 103.936 103.936C104.907 102.964 105.678 101.811 106.204 100.541C106.729 99.2722 107 97.9117 107 96.5378V10.4622C107 9.08831 106.729 7.72784 106.204 6.4585C105.678 5.18917 104.907 4.03582 103.936 3.06431C102.964 2.09281 101.811 1.32216 100.541 0.796389C99.2722 0.270613 97.9117 0 96.5378 0ZM62.06 59.4444H48.685V97.7267H38.0444V59.4444H24.6694V50.7656H62.06V59.4444ZM96.5378 90.8311C95.6773 92.6609 94.2906 94.1925 92.555 95.23C90.729 96.3539 88.7153 97.1392 86.6106 97.5483C84.264 98.0329 81.8733 98.272 79.4772 98.2617C77.0255 98.2595 74.5788 98.0407 72.1656 97.6078C70.1144 97.1877 68.1194 96.5294 66.2211 95.6461V85.4811L65.8644 85.1244H66.2211V85.5406C68.0091 86.9355 70.0185 88.0206 72.1656 88.7506C74.3096 89.5669 76.5888 89.9703 78.8828 89.9394C80.0815 89.9604 81.2786 89.8407 82.4495 89.5828C83.3289 89.377 84.1711 89.0361 84.9461 88.5722C85.5528 88.2024 86.0624 87.6928 86.4322 87.0861C86.7983 86.3952 86.9591 85.614 86.896 84.8346C86.8328 84.0553 86.5481 83.3102 86.0756 82.6872C85.5167 81.9038 84.8099 81.2374 83.995 80.7256C83.0055 80.0298 81.9503 79.4325 80.8445 78.9422L76.8617 77.2778C73.7089 75.9793 70.9155 73.9403 68.7178 71.3333C66.8786 69.1163 65.9069 66.3068 65.9833 63.4272C65.9141 61.2396 66.4052 59.0706 67.41 57.1261C68.3689 55.4312 69.7129 53.9855 71.3333 52.9056C73.1388 51.7044 75.1561 50.8571 77.2778 50.4089C79.5973 49.875 81.9716 49.6157 84.3517 49.6361C86.519 49.6058 88.6854 49.745 90.8311 50.0522C92.6163 50.3313 94.3688 50.7894 96.0622 51.4194V61.2278C95.2797 60.67 94.4433 60.1921 93.5656 59.8011C92.6203 59.3943 91.6469 59.0565 90.6528 58.7906C89.7001 58.5117 88.7258 58.3128 87.74 58.1961C86.8305 58.1104 85.915 58.1104 85.0056 58.1961C83.8855 58.1776 82.7674 58.2974 81.6767 58.5528C80.7819 58.7404 79.9203 59.061 79.1206 59.5039C78.4963 59.8717 77.967 60.3807 77.575 60.99C77.2192 61.582 77.034 62.261 77.04 62.9517C77.0255 63.689 77.2326 64.4138 77.6344 65.0322C78.1227 65.7074 78.7264 66.291 79.4178 66.7561C80.2559 67.4233 81.1746 67.9825 82.1522 68.4206L85.8972 70.085C87.6192 70.7969 89.2879 71.6312 90.8906 72.5817C92.2998 73.3529 93.5828 74.3352 94.695 75.4944C95.7848 76.5505 96.636 77.8274 97.1917 79.2394C97.7617 80.8623 98.0434 82.5723 98.0239 84.2922C97.9814 86.5124 97.4752 88.6992 96.5378 90.7122V90.8311Z" fill="#797474"/>
</svg>
