<svg width="1440" height="383" viewBox="0 0 1440 383" fill="none" xmlns="http://www.w3.org/2000/svg">
<path d="M0 15.0396C119.562 -12.7376 179.502 -2.50388 277 49.6267C364.5 67.6856 419.262 53.1653 501.5 15.9579C586 -13.7319 681.58 13.2758 788.5 49.6267C892.5 77.7862 966 44.7295 1065 15.0396C1107.5 2.29401 1189.28 16.0517 1254 49.6267C1321.5 84.6463 1379.86 49.6333 1440 15.0396V238.478H0V15.0396Z" fill="#B0D2D0" fill-opacity="0.92"/>
<path d="M0 81.5835C119.562 53.8062 179.502 64.04 277 116.171C364.5 134.229 419.262 119.709 501.5 82.5018C586 52.812 681.58 79.8196 788.5 116.171C892.5 144.33 966 111.273 1065 81.5835C1107.5 68.8379 1189.28 82.5956 1254 116.171C1321.5 151.19 1379.86 116.177 1440 81.5835V305.022H0V81.5835Z" fill="#AFD9D6" fill-opacity="0.92"/>
<path d="M0 159.561C119.562 131.784 179.502 142.018 277 194.148C364.5 212.207 419.262 197.687 501.5 160.48C586 130.79 681.58 157.797 788.5 194.148C892.5 222.308 966 189.251 1065 159.561C1107.5 146.816 1189.28 160.573 1254 194.148C1321.5 229.168 1379.86 194.155 1440 159.561V383H0V159.561Z" fill="#83C4BF"/>
</svg>
