<svg width="122" height="135" viewBox="0 0 122 135" fill="none" xmlns="http://www.w3.org/2000/svg">
<path d="M117.807 103.9L63.1905 134.82V110.718L97.2162 92.0179L117.807 103.9ZM121.52 100.524V35.8485L101.537 47.2579V88.9799L121.52 100.524ZM3.71312 103.9L58.3297 134.752V110.718L24.3041 92.0179L3.71312 103.9ZM0 100.524V35.8485L19.9833 47.2579V88.9799L0 100.524ZM2.36289 31.6628L58.3297 0V23.2914L22.4813 43.0047L22.1437 43.1397L2.36289 31.6628ZM119.157 31.6628L63.1905 0V23.2914L99.039 43.0722L99.3091 43.2072L119.157 31.6628ZM58.3297 105.25L24.7766 86.752V50.2284L58.3297 69.6041V105.25ZM63.1905 105.25L96.7436 86.8195V50.2284L63.1905 69.6041V105.25ZM27.0045 45.9752L60.7601 27.4096L94.5158 45.9752L60.7601 65.4184L27.0045 45.9752Z" fill="#797474"/>
</svg>
